/* XPM */
static char *Full_Extend[] = {
/* columns rows colors chars-per-pixel */
"16 16 16 1 ",
"  c black",
". c #800000",
"X c #008000",
"o c #808000",
"O c navy",
"+ c #800080",
"@ c None",
"# c #C0C0C0",
"$ c #808080",
"% c red",
"& c green",
"* c yellow",
"= c blue",
"- c magenta",
"; c cyan",
": c gray100",
/* pixels */
"@@@@@@$$$$$@@@@@",
"@@@@$$$X=XX$$@@@",
"@@@$==@==XXXX$@@",
"@@$====X=XXXXX$@",
"@@$##=XXXXXXXX$@",
"@$##==X===X=O=X$",
"@$##=X======O=X$",
"@$=#===XX=XXXO=$",
"@$#==XXXXXX=XX=$",
"@$#@=#XXXXXX===$",
"@@$@=#XXXXXXXX$@",
"@@$#==#@XXXXX@$@",
"@@@$====XXXX=$@@",
"@@@@$$===XX$$@@@",
"@@@@@@$$$$$@@@@@",
"@@@@@@@@@@@@@@@@"
};
