/* XPM */
static char *zoom2region[] = {
/* columns rows colors chars-per-pixel */
"32 32 256 2 ",
"   c #FFF0FF",
".  c #FCD2FC",
"X  c #F9B4F9",
"o  c #F696F6",
"O  c #F378F3",
"+  c #F05AF0",
"@  c #ED3CED",
"#  c #EA1EEA",
"$  c #E700E7",
"%  c #CF00CF",
"&  c #B700B7",
"*  c #9F009F",
"=  c #870087",
"-  c #6F006F",
";  c #570057",
":  c #400040",
">  c #FFEBF4",
",  c #FCCEE8",
"<  c #F9B1DC",
"1  c #F694D0",
"2  c #F377C4",
"3  c #F05AB8",
"4  c #ED3DAC",
"5  c #EA20A0",
"6  c #E70091",
"7  c #CF0082",
"8  c #B70073",
"9  c #9F0064",
"0  c #870055",
"q  c #6F0046",
"w  c #570037",
"e  c #400028",
"r  c #FFE0E0",
"t  c #FCC4C4",
"y  c #F9A8A8",
"u  c #F68C8C",
"i  c #F37070",
"p  c #F05454",
"a  c #ED3838",
"s  c #EA1C1C",
"d  c #E70000",
"f  c #CF0000",
"g  c #B70000",
"h  c #9F0000",
"j  c #870000",
"k  c #6F0000",
"l  c #570000",
"z  c #400000",
"x  c #FFF5E0",
"c  c #FCE8C4",
"v  c #F9DCA8",
"b  c #F6D08C",
"n  c #F3C470",
"m  c #F0B854",
"M  c #EDAC38",
"N  c #EAA01C",
"B  c #E79100",
"V  c #CF8200",
"C  c #B77300",
"Z  c #9F6400",
"A  c #875500",
"S  c #6F4600",
"D  c #573700",
"F  c #402800",
"G  c LightYellow",
"H  c #FCFCC4",
"J  c #F9F9A8",
"K  c #F6F68C",
"L  c #F3F370",
"P  c #F0F054",
"I  c #EDED38",
"U  c #EAEA1C",
"Y  c #E7E700",
"T  c #CFCF00",
"R  c #B7B700",
"E  c #9F9F00",
"W  c #878700",
"Q  c #6F6F00",
"!  c #575700",
"~  c #404000",
"^  c #F0FFE0",
"/  c #EBFCC4",
"(  c #E6F9A8",
")  c #E1F68C",
"_  c #DCF370",
"`  c #D7F054",
"'  c #D2ED38",
"]  c #CDEA1C",
"[  c #C9E700",
"{  c #B2CF00",
"}  c #9BB700",
"|  c #849F00",
" . c #6D8700",
".. c #566F00",
"X. c #3F5700",
"o. c #284000",
"O. c #E0FFE0",
"+. c #C4FCC4",
"@. c #A8F9A8",
"#. c #8CF68C",
"$. c #70F370",
"%. c #54F054",
"&. c #38ED38",
"*. c #1CEA1C",
"=. c #00E700",
"-. c #00CF00",
";. c #00B700",
":. c #009F00",
">. c #008700",
",. c #006F00",
"<. c #005700",
"1. c #004000",
"2. c #E0FFF0",
"3. c #C4FCEB",
"4. c #A8F9E6",
"5. c #8CF6E1",
"6. c #70F3DC",
"7. c #54F0D7",
"8. c #38EDD2",
"9. c #1CEACD",
"0. c #00E7C9",
"q. c #00CFB2",
"w. c #00B79B",
"e. c #009F84",
"r. c #00876D",
"t. c #006F56",
"y. c #00573F",
"u. c #004028",
"i. c LightCyan",
"p. c #C4FCFC",
"a. c #A8F9F9",
"s. c #8CF6F6",
"d. c #70F3F3",
"f. c #54F0F0",
"g. c #38EDED",
"h. c #1CEAEA",
"j. c #00E7E7",
"k. c #00CFCF",
"l. c #00B7B7",
"z. c #009F9F",
"x. c #008787",
"c. c #006F6F",
"v. c #005757",
"b. c #004040",
"n. c #E0F8FF",
"m. c #C4F2FC",
"M. c #A8ECF9",
"N. c #8CE6F6",
"B. c #70E0F3",
"V. c #54DAF0",
"C. c #38D4ED",
"Z. c #1CCEEA",
"A. c #00CBE7",
"S. c #00B6CF",
"D. c #00A1B7",
"F. c #008C9F",
"G. c #007787",
"H. c #00626F",
"J. c #004D57",
"K. c #003740",
"L. c #E0F0FF",
"P. c #C4E8FC",
"I. c #A8E0F9",
"U. c #8CD8F6",
"Y. c #70D0F3",
"T. c #54C8F0",
"R. c #38C0ED",
"E. c #1CB8EA",
"W. c #00AEE7",
"Q. c #009CCF",
"!. c #008AB7",
"~. c #00789F",
"^. c #006687",
"/. c #00546F",
"(. c #004257",
"). c #003040",
"_. c #E0E8FF",
"`. c #C4DAFC",
"'. c #A8CCF9",
"]. c #8CBEF6",
"[. c #70B0F3",
"{. c #54A2F0",
"}. c #3894ED",
"|. c #1C86EA",
" X c #0074E7",
".X c #0068CF",
"XX c #005CB7",
"oX c #00509F",
"OX c #004487",
"+X c #00386F",
"@X c #002C57",
"#X c #001C40",
"$X c #E0E0FF",
"%X c #C4C4FC",
"&X c #A8A8F9",
"*X c #8C8CF6",
"=X c #7070F3",
"-X c #5454F0",
";X c #3838ED",
":X c #1C1CEA",
">X c #0000E7",
",X c #0000CF",
"<X c #0000B7",
"1X c #00009F",
"2X c #000087",
"3X c #00006F",
"4X c #000057",
"5X c #000040",
"6X c #F0E8FF",
"7X c #E4CBFC",
"8X c #D8AEF9",
"9X c #CC91F6",
"0X c #C074F3",
"qX c #B457F0",
"wX c #A83AED",
"eX c #9C1DEA",
"rX c #9100E7",
"tX c #8200CF",
"yX c #7300B7",
"uX c #64009F",
"iX c #550087",
"pX c #46006F",
"aX c #370057",
"sX c #280040",
"dX c gray100",
"fX c gray94",
"gX c gray91",
"hX c gray88",
"jX c #D8D8D8",
"kX c #D0D0D0",
"lX c #C8C8C8",
"zX c #C0C0C0",
"xX c gray72",
"cX c gray69",
"vX c gray66",
"bX c #A0A0A0",
"nX c #989898",
"mX c #909090",
"MX c #888888",
"NX c #808080",
"BX c #808080",
"VX c gray44",
"CX c #686868",
"ZX c #606060",
"AX c #585858",
"SX c #505050",
"DX c #484848",
"FX c gray25",
"GX c gray22",
"HX c gray19",
"JX c #282828",
"KX c #202020",
"LX c #181818",
"PX c #101010",
"IX c gray3",
"UX c black",
/* pixels */
"kXkXkXkXkXkXkXkXkXkXkXkXkXkXkXkXkXkXkXkXkXkXkXkXkXkXkXkXkXkXkXkX",
"kXkXkXkXkXkXkXkXkXkXkXkXkXkXkXkXkXkXkXkXkXkXkXkXkXkXkXkXkXkXkXkX",
"kXkXkXkXkXkXkXkXkXkXkXkXkXkXkXkXkXkXkXkXkXkXkXkXkXkXkXkXkXkXkXkX",
"kXkXkXkXkXkXkXkXkXkXkXkXkXkXkXkXkXkXkXkXkXkXkXkXkXkXkXkXkXkXkXkX",
"kXkXkXkXkXkXkXkXkXkXkXkXkXkXkXkXkXkXkXkXkXkXkXkXkXkXkXkXkXkXkXkX",
"kXkXkXkXkXkXkXkXkXkXkXkXkXkXkXkXkXkXkXkXkXkXkXkXkXkXkXkXkXkXkXkX",
"kXkXkXkXkXkXkXkXkXkXkXkXkXkXkXkXkXkXkXkXkXkXkXkXkXkXkXkXkXkXkXkX",
"kXkXkXkXkXkXkXkXkXkXkXkXkXkXkXkXIXIXIXIXIXIXkXkXkXkXkXkXkXkXkXkX",
"kXkXkXkXkXkXkXkXkXkXkXkXkXkXkXIXx.j.j.j.j.j.IXkXkXkXkXkXkXkXkXkX",
"kXkXkXkXkXkXkXkXkXkXkXkXkXIXIXj.j.j.j.j.j.j.j.IXIXkXkXkXkXkXkXkX",
"kXkXkXkXkXkXkXkXkXkXkXkXkXIXj.j.j.j.j.j.j.j.j.j.IXkXkXkXkXkXkXkX",
"kXkXkXkXkXkXkXkXkXkXkXkXIXj.j.d d d d d d d d j.s.IXkXkXkXkXkXkX",
"kXkXkXkXkXkXkXkXkXkXkXIXx.j.j.d j.j.j.j.j.j.d j.s.s.IXkXkXkXkXkX",
"kXkXkXkXkXkXkXkXkXkXkXIXj.j.j.d j.j.j.j.j.j.d j.s.s.IXkXkXkXkXkX",
"kXkXkXkXkXkXkXkXkXkXkXIXj.j.j.d j.j.j.j.j.j.d j.s.s.IXkXkXkXkXkX",
"kXkXkXkXkXkXkXkXkXkXkXIXj.j.j.d j.j.j.j.j.j.d j.s.s.IXkXkXkXkXkX",
"kXkXkXkXkXkXkXkXkXkXkXIXj.j.j.d j.j.j.j.j.j.d j.s.s.IXkXkXkXkXkX",
"kXkXkXkXkXkXkXkXkXkXkXIXj.j.j.d j.j.j.j.j.j.d s.s.s.IXkXkXkXkXkX",
"kXkXkXkXkXkXkXkXkXkXkXlXIXj.j.d d d d d d d d s.s.IXkXkXkXkXkXkX",
"kXkXkXkXkXkXkXkXkXkXkXlXIXIXj.j.j.j.j.j.j.s.s.s.IXkXkXkXkXkXkXkX",
"kXkXkXkXkXkXkXkXkXkXlXIXIXIXIXs.s.s.s.s.s.s.s.IXIXkXkXkXkXkXkXkX",
"kXkXkXkXkXkXkXkXkXlXIXIXIXlXlXIXs.s.s.s.s.s.IXkXkXkXkXkXkXkXkXkX",
"kXkXkXkXkXkXkXkXlXIXIXIXlXkXkXkXIXIXIXIXIXIXkXkXkXkXkXkXkXkXkXkX",
"kXkXkXkXkXkXkXlXIXIXIXlXkXkXkXkXkXkXkXkXkXkXkXkXkXkXkXkXkXkXkXkX",
"kXkXkXkXkXkXlXIXIXIXlXkXkXkXkXkXkXkXkXkXkXkXkXkXkXkXkXkXkXkXkXkX",
"kXkXkXkXkXlXIXIXIXlXkXkXkXkXkXkXkXkXkXkXkXkXkXkXkXkXkXkXkXkXkXkX",
"kXkXkXkXlXIXIXIXlXkXkXkXkXkXkXkXkXkXkXkXkXkXkXkXkXkXkXkXkXkXkXkX",
"kXkXkXlXIXIXIXlXkXkXkXkXkXkXkXkXkXkXkXkXkXkXkXkXkXkXkXkXkXkXkXkX",
"kXkXlXIXIXIXlXkXkXkXkXkXkXkXkXkXkXkXkXkXkXkXkXkXkXkXkXkXkXkXkXkX",
"kXkXkXlXIXlXkXkXkXkXkXkXkXkXkXkXkXkXkXkXkXkXkXkXkXkXkXkXkXkXkXkX",
"kXkXkXkXlXkXkXkXkXkXkXkXkXkXkXkXkXkXkXkXkXkXkXkXkXkXkXkXkXkXkXkX",
"kXkXkXkXkXkXkXkXkXkXkXkXkXkXkXkXkXkXkXkXkXkXkXkXkXkXkXkXkXkXkXkX"
};
